# xmcd
#
# Track frame offsets:
#	150
#	10183
#	22953
#	33245
#	45260
#	55173
#	68190
#	77415
#	90625
#	99323
#	111943
#	122275
#
# Disc length: 1768 seconds
# Revision: 5
# Processed by: cddbd v1.5.2PL0 Copyright (c) Steve Scherf et al.
# Submitted via: dBpowerAMP V12.0
#
DISCID=7e06e60c
DTITLE=Jimmie Rodgers - The Best Of Jimmie Rodgers
DYEAR=1987
DGENRE=Country
TTITLE0=Honeycomb
TTITLE1=Born To Lose
TTITLE2=Oh, Oh, I'm Falling In Love Again
TTITLE3=It's Over
TTITLE4=Bimbombey
TTITLE5=Danny Boy
TTITLE6=Blue Without You
TTITLE7=No One Will Ever Know
TTITLE8=Woman from Liberia
TTITLE9=It Keeps Right On A-Hurtin'
TTITLE10=Are You Really Mine
TTITLE11=Kisses Sweeter Than Wine
EXTD=
EXTT0=
EXTT1=
EXTT2=
EXTT3=
EXTT4=
EXTT5=
EXTT6=
EXTT7=
EXTT8=
EXTT9=
EXTT10=
EXTT11=
PLAYORDER=
